<?xml version="1.0" encoding="UTF-8" standalone="no"?>
<!-- Created with Inkscape (http://www.inkscape.org/) -->

<svg
   width="512"
   height="512"
   viewBox="0 0 512 512"
   version="1.1"
   id="svg5"
   xmlns="http://www.w3.org/2000/svg"
   xmlns:svg="http://www.w3.org/2000/svg">
  <defs
     id="defs2">
    <rect
       x="303.79639"
       y="32.588231"
       width="224.97887"
       height="106.68351"
       id="rect93247" />
  </defs>
  <g
     id="layer1">
    <g
       id="g15227"
       transform="translate(-13.802151,20.39578)">
      <path
         id="path13406-3"
         style="fill:#000000;stroke-width:18.4515;stroke-miterlimit:4;stroke-dasharray:none"
         d="m 349.48488,6.9119733 c -31.43289,0.043186 -60.7683,17.0775967 -78.18322,45.3991727 -15.38298,-9.638702 -33.1393,-14.752279 -51.26003,-14.762183 -38.47048,0.03698 -73.2905,22.931508 -88.77808,58.372439 -24.25919,4.207918 -44.796665,20.095158 -54.755035,42.357048 -33.051691,1.98686 -58.848318,28.91262 -58.932089,61.51152 -1.83e-4,34.12241 65.708921,-60.91271 115.709494,-63.28867 42.97141,-47.700502 70.69656,-63.558395 154.6282,-73.290532 41.5712,-0.937182 65.92097,5.12279 100.37316,-7.351367 34.45218,-12.474158 8.56986,-48.9325348 -38.8024,-48.9474277 z" />
    </g>
    <path
       d="M -16.924188,19.235936"
       id="path15139"
       style="stroke-width:1.06126" />
    <g
       id="g30472"
       transform="matrix(1.0423719,0,0,1.0700376,-13.815966,24.956572)">
      <path
         id="path30470"
         style="fill:#e33b00;fill-opacity:1;stroke:none;stroke-width:19.4869;stroke-miterlimit:4;stroke-dasharray:none"
         d="M 350.35352,9.1113281 C 317.58875,9.1575388 287.01025,27.384302 268.85742,57.689453 252.82264,47.37568 234.31432,41.905129 215.42578,41.894531 175.32523,41.934101 139.02858,66.43234 122.88477,104.35547 97.597668,108.8581 76.190872,125.85668 65.810547,149.67773 31.358393,151.80375 4.4681799,180.616 4.3808594,215.49805 c -1.908e-4,36.51226 29.2886536,66.11035 64.3375116,66.06619 35.048859,-0.0442 7.687001,1.10049 36.736169,1.20878 0.81186,-18.39716 -0.27668,-41.99536 5.00741,-68.18951 7.29737,-36.17431 24.22178,-75.98028 55.0783,-103.7935 35.95864,-32.412145 69.02619,-47.440251 129.66827,-47.198306 48.31721,0.192773 77.0478,14.652043 104.60153,37.047936 27.55372,22.39589 37.527,39.88837 48.56411,67.59898 11.0371,27.71062 11.19915,47.97547 9.95235,66.17133 -1.10156,16.07635 -3.56079,31.16901 -11.0908,47.05343 l 13.08695,-0.11638 c 27.93317,-1.32506 47.54028,-43.83352 47.59341,-89.28852 -0.0111,-42.00327 -25.05235,-78.40415 -60.32227,-87.6875 C 441.39656,49.942411 399.73303,9.1272641 350.35352,9.1113281 Z M 223.5932,255.70686 c -0.86504,7.80109 -0.46994,18.57022 -1.06224,25.74525 28.97541,0.004 108.72804,0.0955 137.70482,0.0598 11.40883,-33.75277 14.5284,-64.8513 -21.91153,-93.36873 -7.37941,-5.77502 -29.57457,-11.71112 -58.08809,-7.39489 -13.36737,4.43596 -50.88554,23.03752 -56.64296,74.95854 z"
         transform="matrix(0.9593505,0,0,0.9345466,13.373262,-1.6030249)" />
    </g>
    <path
       style="opacity:1;fill:#dcdcdc;fill-opacity:1;stroke:none;stroke-width:2.71327;stroke-linecap:butt;stroke-linejoin:miter;stroke-miterlimit:4;stroke-dasharray:none;stroke-opacity:1"
       d="M 397.43777,371.54717 C 443.7556,325.16056 473.52553,259.37691 435.86593,178.68243 376.42083,51.307413 161.64381,60.407803 119.81475,223.97131 100.60287,299.09518 123.17627,349.53298 87.461453,380.1828 l -49.489546,42.47105 c 0,0 -34.9071439,30.62473 -3.539243,67.61322 31.367902,36.98849 69.420706,4.94163 69.420706,4.94163 l 78.72079,-69.72598 c 0,0 36.43023,-29.90986 34.14068,-137.94637 -1.74568,-82.37375 73.94098,-104.37882 106.58,-91.59907 67.76937,26.53497 55.20409,76.59455 42.00479,115.31606 -5.10297,14.97009 -12.29371,27.31685 -29.22301,39.74044 -13.45437,9.87351 -26.74401,14.80266 -54.25401,13.11157 -29.35629,-1.8046 -45.56084,-4.65959 -58.82035,-10.8342 0,0 6.29691,27.95267 55.66442,42.12439 47.18748,13.54589 90.2389,4.72618 118.77109,-23.84837 z"
       id="path34509" />
    <path
       style="opacity:0.15449;fill:#000000;fill-opacity:1;stroke:#000000;stroke-width:1.40366;stroke-linecap:butt;stroke-linejoin:miter;stroke-miterlimit:4;stroke-dasharray:none;stroke-opacity:1"
       d="m 419.7645,267.71848 c 1.64394,-53.69103 -16.63753,-83.11347 -49.0778,-102.91418 -43.47631,-26.53682 -95.52102,-33.59452 -152.73776,4.55128 -34.65869,23.10658 -50.01431,86.85766 -47.81169,133.12676 1.86539,39.18522 3.81231,78.42146 -29.88984,106.08317 -73.566987,60.38155 -100.705905,86.74373 -100.705905,86.74373 26.918365,28.91846 64.311865,-0.1005 64.311865,-0.1005 l 78.72079,-69.72602 c 0,0 36.43023,-29.90986 34.14068,-137.94637 -1.74568,-82.37375 73.94098,-104.37882 106.58,-91.59907 67.76937,26.53497 56.00502,73.95069 42.62814,112.62823 -4.73795,13.69915 -10.67499,27.35819 -27.24838,40.93522 -13.87641,11.36763 -28.72121,16.23359 -57.42485,14.1411 -21.43519,-1.56262 -39.36559,-2.40851 -58.02248,-9.81033 21.70197,17.60014 25.16418,23.6827 81.17025,26.4353 45.67132,2.24466 68.8728,-20.77963 82.56081,-35.04397 17.1061,-17.82637 32.10017,-54.44702 32.80617,-77.50435 z"
       id="path59798" />
  </g>
</svg>
